<svg width="107" height="107" viewBox="0 0 107 107" fill="none" xmlns="http://www.w3.org/2000/svg">
<path d="M0 53.5C0 23.9528 23.9528 0 53.5 0V0C83.0472 0 107 23.9528 107 53.5V107H53.5C23.9528 107 0 83.0472 0 53.5V53.5Z" fill="#0048FF"/>
<path d="M29.2564 65.7107C29.5698 65.2694 30.1295 65 30.733 65H42.2693C43.6169 65 44.4459 66.2614 43.7459 67.2468L38.7436 74.2893C38.4302 74.7306 37.8705 75 37.267 75H25.7307C24.3831 75 23.5541 73.7386 24.2541 72.7532L29.2564 65.7107Z" fill="white"/>
<path d="M22.3502 26L27.4369 26C31.7974 26.0001 34.937 28.2699 37.2916 36.6508C39.6463 45.0318 47.2336 50.6191 54.5593 50.6191C61.1156 50.6191 81.3637 50.6657 97.6728 50.6337C100.182 50.6288 101.786 53.3062 100.603 55.5205L93.8911 68.0794C90.4145 74.9093 87.0015 81 81.9433 81H66.9431C58.6581 81 54.4721 78.119 48.4546 60.2222C43.6405 45.9048 32.7567 41.1032 25.2566 41.3651C21.3389 41.5019 17.7305 41.4958 15.1773 41.4587C13.463 41.4338 12.4464 39.5758 13.3186 38.0982L19.4981 27.6298C20.0943 26.6197 21.1782 26 22.3502 26Z" fill="white"/>
</svg>
