<svg width="467" height="467" viewBox="0 0 467 467" fill="none" xmlns="http://www.w3.org/2000/svg">
<path d="M0 233.5C0 104.542 104.542 0 233.5 0C362.459 0 467 104.542 467 233.5V467H233.5C104.542 467 0 362.459 0 233.5Z" fill="#0048FF"/>
<path d="M122.22 285.206C123.414 283.545 125.575 282.5 127.942 282.5H175.818C178.459 282.5 180.555 283.719 181.652 285.368C182.741 287.006 182.861 289.082 181.54 290.92L160.78 319.794C159.586 321.455 157.425 322.5 155.058 322.5H107.182C104.541 322.5 102.445 321.281 101.348 319.632C100.259 317.994 100.139 315.918 101.46 314.08L122.22 285.206Z" fill="white" stroke="#898989"/>
<path d="M93.101 118L114.372 118C132.607 118 145.736 127.492 155.583 162.54C165.43 197.587 197.159 220.952 227.793 220.952C255.211 220.952 339.884 221.147 408.086 221.014C418.577 220.993 425.289 232.19 420.34 241.45L392.272 293.968C377.733 322.53 363.461 348 342.308 348H279.58C244.934 348 227.429 335.952 202.264 261.111C182.133 201.238 136.619 181.159 105.255 182.254C88.8718 182.826 73.7822 182.801 63.105 182.646C55.9363 182.542 51.685 174.771 55.3323 168.593L81.1737 124.815C83.667 120.591 88.1999 118 93.101 118Z" fill="white" stroke="#898989"/>
</svg>
